#!OML:ASF I:\Actors\actors\Patient Classification 1\Patient 1\Session 1\Subject1.ASF
:FULLY-SPECIFIED
:DEGREES
494
root -1.76953 17.5665 8.45346 6.98007 25.3919 -3.9904
lowerback 4.35764 5.5728 5.82632
upperback -9.33925 8.37471 0.843132
thorax -11.8446 3.59588 -3.47451
lowerneck -9.73784 -11.4588 -9.72086
upperneck 19.8021 -16.0587 8.79184
head 9.34235 -7.42686 2.63643
rclavicle 1.10972e-013 2.26615e-014
rhumerus 0.204217 3.9273 -80.2168
rradius 33.1454
rwrist 1.55708
rhand -3.17404 -40.4728
rfingers 7.12502
rthumb 22.5469 -69.1763
lclavicle 1.10972e-013 2.26615e-014
lhumerus -74.8486 40.6348 3.03328
lradius 21.0283
lwrist -33.5608
lhand -31.2794 -29.0352
lfingers 7.12502
lthumb -4.5529 0.895912
rfemur 4.47707 18.7031 31.0547
rtibia -1.11397
rfoot -22.6232 -38.4104
rtoes 25.5785
lfemur -7.12975 -32.4304 -6.03242
ltibia 2.66285
lfoot -5.10494 16.9929
ltoes -21.7887
495
root -1.77256 17.5742 8.43962 6.6809 25.1697 -4.18114
lowerback 4.81654 5.52444 5.96307
upperback -9.31373 8.37424 0.980546
thorax -12.1023 3.57396 -3.45529
lowerneck -9.62654 -11.3753 -9.53036
upperneck 19.7276 -15.9642 8.74445
head 9.26509 -7.37988 2.6146
rclavicle -6.94255e-014 -2.0276e-014
rhumerus 1.31017 8.41215 -78.5157
rradius 35.0987
rwrist -1.48121
rhand -3.13706 -40.8789
rfingers 7.12502
rthumb 22.5824 -69.5781
lclavicle -6.94255e-014 -2.0276e-014
lhumerus -76.5689 40.7435 0.70707
lradius 20.7974
lwrist -35.0905
lhand -31.198 -28.9513
lfingers 7.12502
lthumb -4.47431 0.981474
rfemur 4.62944 18.4258 31.1994
rtibia -1.10169
rfoot -22.3008 -37.9763
rtoes 25.2622
lfemur -6.7677 -32.4718 -6.10225
ltibia 2.65312
lfoot -5.16345 17.4039
ltoes -21.8104
496
root -1.77501 17.5805 8.4241 6.44565 25.0893 -4.46547
lowerback 5.1867 5.39631 6.17946
upperback -9.31175 8.27512 1.14777
thorax -12.3376 3.5005 -3.42426
lowerneck -9.39635 -11.3608 -9.16958
upperneck 19.5699 -16.0286 8.83523
head 9.15116 -7.38708 2.59813
rclavicle -9.07949e-014 -5.96354e-014
rhumerus 2.81908 8.17034 -78.0679
rradius 37.0979
rwrist 0.536429
rhand -3.01652 -39.9232
rfingers 7.12502
rthumb 22.6981 -68.6083
lclavicle -9.07949e-014 -5.96354e-014
lhumerus -78.2226 40.6727 -1.41913
lradius 20.7075
lwrist -36.7009
lhand -31.0155 -28.6575
lfingers 7.12502
lthumb -4.29809 1.27886
rfemur 4.69844 18.3245 31.4443
rtibia -1.13858
rfoot -22.1803 -37.7623
rtoes 25.3218
lfemur -6.62555 -32.6096 -5.94381
ltibia 2.65564
lfoot -5.28816 17.8416
ltoes -21.5174
497
root -1.77653 17.5816 8.40711 6.52281 25.1759 -4.68727
lowerback 5.22564 5.21369 6.33052
upperback -9.35888 8.06869 1.28293
thorax -12.4396 3.38929 -3.34136
lowerneck -9.17319 -11.4286 -9.24166
upperneck 19.6024 -16.3069 9.60272
head 9.22722 -7.4528 2.8352
rclavicle 8.49804e-015 2.22639e-014
rhumerus 4.86018 10.9552 -76.2611
rradius 39.5532
rwrist -1.78838
rhand -2.8637 -40.1833
rfingers 7.12502
rthumb 22.8448 -68.8503
lclavicle 8.49804e-015 2.22639e-014
lhumerus -79.432 40.4287 -2.91234
lradius 20.5982
lwrist -37.8138
lhand -30.7525 -28.2884
lfingers 7.12502
lthumb -4.0441 1.65299
rfemur 4.46618 18.3609 31.5633
rtibia -1.20488
rfoot -22.2201 -37.771
rtoes 25.5782
lfemur -6.97018 -32.8507 -5.5658
ltibia 2.7072
lfoot -5.41989 18.22
ltoes -21.0905
498
root -1.78017 17.5819 8.38972 6.76878 25.2835 -4.81172
lowerback 5.15758 5.03787 6.35333
upperback -9.4125 7.84625 1.40034
thorax -12.4969 3.28495 -3.19429
lowerneck -8.99633 -11.5302 -9.19747
upperneck 19.623 -16.6465 10.3597
head 9.30627 -7.5382 3.04078
rclavicle -4.17448e-015 -5.56597e-015
rhumerus 7.15631 12.531 -74.5447
rradius 42.0757
rwrist -3.70914
rhand -2.48491 -40.2979
rfingers 7.12502
rthumb 23.2082 -68.9196
lclavicle -4.17448e-015 -5.56597e-015
lhumerus -80.4632 40.2288 -4.18458
lradius 20.3944
lwrist -38.6901
lhand -30.5665 -28.0022
lfingers 7.12502
lthumb -3.86453 1.94255
rfemur 4.09503 18.3736 31.5472
rtibia -1.27758
rfoot -22.2537 -37.7386
rtoes 25.9557
lfemur -7.48401 -33.1002 -5.16786
ltibia 2.74318
lfoot -5.37476 18.496
ltoes -21.2351
499
root -1.78592 17.585 8.37249 6.95498 25.3624 -4.90385
lowerback 5.19663 4.92091 6.32162
upperback -9.44804 7.70548 1.51637
thorax -12.5976 3.22236 -3.04056
lowerneck -8.86655 -11.6562 -8.91384
upperneck 19.6897 -17.045 11.0435
head 9.39109 -7.63626 3.17542
rclavicle -3.95581e-014 3.97569e-015
rhumerus 9.54178 13.0998 -72.9127
rradius 44.2766
rwrist -4.7262
rhand -2.23949 -40.071
rfingers 7.12502
rthumb 23.4437 -68.6628
lclavicle -3.95581e-014 3.97569e-015
lhumerus -81.2097 40.0554 -4.92855
lradius 20.4743
lwrist -39.1828
lhand -30.4453 -27.7472
lfingers 7.12502
lthumb -3.74753 2.1996
rfemur 3.82638 18.3637 31.5256
rtibia -1.3982
rfoot -22.2099 -37.6972
rtoes 26.204
lfemur -7.86403 -33.3399 -4.84135
ltibia 2.70412
lfoot -5.27035 18.7158
ltoes -21.3851
500
root -1.7933 17.5892 8.35649 7.0599 25.4373 -4.98812
lowerback 5.30053 4.85639 6.26132
upperback -9.48044 7.63883 1.63539
thorax -12.7319 3.19655 -2.88443
lowerneck -8.64473 -11.7541 -8.63932
upperneck 19.7539 -17.4106 11.7482
head 9.46029 -7.7207 3.32948
rclavicle -3.27995e-014 -3.45885e-014
rhumerus 11.8874 13.4185 -71.1307
rradius 46.1195
rwrist -5.24845
rhand -2.34608 -39.8108
rfingers 7.12502
rthumb 23.3414 -68.4156
lclavicle -3.27995e-014 -3.45885e-014
lhumerus -81.6721 39.925 -5.2485
lradius 20.6459
lwrist -39.3806
lhand -30.4541 -27.639
lfingers 7.12502
lthumb -3.75603 2.30769
rfemur 3.66942 18.5422 31.5704
rtibia -1.52031
rfoot -22.2549 -37.8648
rtoes 26.4449
lfemur -8.15446 -33.43 -4.55097
ltibia 2.6551
lfoot -5.16515 18.7665
ltoes -21.3667
501
root -1.80057 17.5941 8.34259 7.11387 25.5497 -4.99549
lowerback 5.43491 4.80489 6.15035
upperback -9.49772 7.58434 1.74669
thorax -12.8708 3.18099 -2.71279
lowerneck -8.45277 -11.7911 -8.27823
upperneck 19.9367 -17.6728 12.2712
head 9.53984 -7.76156 3.42436
rclavicle -5.32743e-014 -1.19271e-014
rhumerus 14.2598 13.8837 -69.1138
rradius 47.4162
rwrist -5.93
rhand -2.88412 -39.6784
rfingers 7.12502
rthumb 22.8252 -68.3478
lclavicle -5.32743e-014 -1.19271e-014
lhumerus -81.89 39.8076 -5.26072
lradius 20.6911
lwrist -39.4711
lhand -30.8074 -27.6733
lfingers 7.12502
lthumb -4.09718 2.2671
rfemur 3.61746 18.8215 31.6014
rtibia -1.61306
rfoot -22.4506 -38.1567
rtoes 26.9009
lfemur -8.35458 -33.3959 -4.40664
ltibia 2.63161
lfoot -5.0833 18.6398
ltoes -21.123
502
root -1.80629 17.5993 8.32858 7.12688 25.7291 -4.97038
lowerback 5.56793 4.76787 6.09441
upperback -9.50824 7.55215 1.83329
thorax -12.9889 3.17042 -2.59945
lowerneck -8.20638 -11.8256 -8.19431
upperneck 20.1366 -17.9014 12.8296
head 9.64319 -7.80504 3.58131
rclavicle -4.47266e-015 7.95139e-016
rhumerus 16.0597 12.4785 -68.4947
rradius 48.2587
rwrist -4.48859
rhand -2.79742 -38.7872
rfingers 7.12502
rthumb 22.9084 -67.4463
lclavicle -4.47266e-015 7.95139e-016
lhumerus -81.3842 39.5553 -4.32841
lradius 20.5545
lwrist -38.8469
lhand -31.1672 -27.8682
lfingers 7.12502
lthumb -4.44461 2.06519
rfemur 3.59185 18.9467 31.5983
rtibia -1.65755
rfoot -22.6209 -38.3792
rtoes 27.261
lfemur -8.51475 -33.3087 -4.3372
ltibia 2.61481
lfoot -4.97419 18.3699
ltoes -20.7415
